<?xml version="1.0" encoding="UTF-8"?>
<!DOCTYPE svg PUBLIC "-//W3C//DTD SVG 1.1//EN" "http://www.w3.org/Graphics/SVG/1.1/DTD/svg11.dtd">
<svg xmlns="http://www.w3.org/2000/svg" xml:space="preserve" width="210mm" height="41.9451mm" version="1.1" style="shape-rendering:geometricPrecision; text-rendering:geometricPrecision; image-rendering:optimizeQuality; fill-rule:evenodd; clip-rule:evenodd"
viewBox="0 0 20999.98 4194.51"
 xmlns:xlink="http://www.w3.org/1999/xlink"
 xmlns:xodm="http://www.corel.com/coreldraw/odm/2003">
 <defs>
  <style type="text/css">
   <![CDATA[
    .fil3 {fill:#005BBB}
    .fil5 {fill:#005BBB}
    .fil4 {fill:#FFD500}
    .fil1 {fill:#005BBB;fill-rule:nonzero}
    .fil2 {fill:#005BBB;fill-rule:nonzero}
    .fil0 {fill:#FFD500;fill-rule:nonzero}
   ]]>
  </style>
 </defs>
 <g id="Слой_x0020_1">
  <metadata id="CorelCorpID_0Corel-Layer"/>
  <path class="fil0" d="M7726.69 2358.18c-142.37,180.81 -599.74,178.12 -547.58,403.58 127,548.98 674.63,902.45 1005.92,1357.76l-921.56 0c-160.66,-209.5 -318.43,-421.09 -473.3,-634.77 -154.87,-213.68 -312.64,-425.27 -462.23,-651.16l-764.42 0 0 1283.52 -771.17 0 0 -703.72 0 -703.72 1467.17 -175.75 1467.17 -175.74z"/>
  <path class="fil0" d="M20693.27 1006.96c53.59,87.89 101.01,180.08 141.49,275.99 108.76,257.7 165.22,535.65 165.22,815.6 0,279.96 -56.5,557.88 -165.42,815.6 -214.23,500.92 -613.72,900.41 -1114.71,1114.79 -253.3,108.9 -526.28,165.33 -801.99,165.33 -4.95,0 -10.15,0 -15.04,-0.02 -4.13,0.01 -8.3,0.01 -12.48,0.01 -274.53,0 -546.6,-56.48 -798.54,-165.26 -774.65,-331.5 -1280.74,-1089.92 -1280.74,-1930.45 0,-142.98 14.67,-285.32 43.57,-424.65l850.16 -147.76c-385.63,874.83 202.49,1952.79 1201.7,1952.79 730.03,0 1321.83,-616.95 1321.83,-1377.98 0,-368.3 -138.61,-702.86 -364.4,-950.07l829.35 -143.92z"/>
  <path class="fil1" d="M19796.93 1082.52l850.26 -147.78c-226.05,-338.88 -547.34,-608.02 -927.36,-769.38 -257.17,-109.19 -534.55,-165.36 -814.06,-165.36 -279.5,0 -556.72,56.56 -814.03,165.41 -502.29,213.84 -902.33,614.79 -1114.95,1117.51 -42.27,99.94 -76.83,202.8 -103.09,307.67l873.27 -151.78c224.65,-426.64 659.69,-715.85 1159.52,-715.85 343.02,0 655.52,136.21 890.44,359.56z"/>
  <polygon class="fil0" points="11767.35,2567.06 12559.5,4117.11 11720.85,4117.11 11406.12,3482.34 9503.73,3482.34 9194.78,4117.11 8356.13,4117.11 8787.98,3272.87 9219.83,2428.64 9629.23,2450.98 10038.63,2473.31 9879.2,2809.01 11032.58,2809.01 10896.64,2520.12 "/>
  <path class="fil2" d="M10075.66 2395.33l95.72 -201.55 95.72 -201.56 191.44 -403.11 399.46 848.91c289.2,15.78 578.39,31.56 867.59,47.33l-1228.01 -2402.92 -77.6 0 -1160.34 2268.38c272.01,14.84 544.01,29.69 816.02,44.52z"/>
  <polygon class="fil0" points="13685.66,2224.68 14452.19,2091.45 14606,2422.46 14786.66,2033.32 15692.72,1875.84 14625.77,4117.11 14583.83,4117.11 "/>
  <polygon class="fil1" points="15734.24,1788.63 16546.47,82.43 15692.39,82.43 14827.06,1946.3 "/>
  <polygon class="fil1" points="14417.79,2017.43 13518.65,82.43 12668.91,82.43 13650.58,2150.78 "/>
  <path class="fil3" d="M4082.15 2714.74c23.1,-93.88 38.37,-189.73 46.56,-286.48 3.21,-37.98 5.36,-76.34 5.36,-114.59 0,-4.91 -0.15,-10.27 -0.11,-15.08 0,-56.88 5.78,-107.97 5.78,-174 0,-66.03 1.44,-137.84 5.3,-214.96l-2328.94 0 0 695.5 1489.86 -0.07c-35.71,127.25 -94.71,247.23 -173.61,353.27 -241.15,326.33 -623.43,519.19 -1029.31,519.19 -1.72,0 -3.75,0 -5.39,0 -2.35,0 -5.13,0 -7.47,0 -175.83,0 -349.61,-38.8 -508.75,-113.22 -156.87,-73.45 -299.45,-175.79 -419.39,-300.89 -120.5,-126.62 -217.08,-274.72 -284.3,-436.1 -69.25,-165.46 -105.12,-343.47 -105.12,-522.98 0,-179.49 35.87,-357.51 105.08,-522.96 66.69,-162.32 163.36,-311.48 284.35,-438.63 605.87,-634.24 1517.99,-518.44 2011.8,198.63l661.81 -403.52c-186.81,-282.25 -439.97,-515.51 -736.46,-678.44 -1090.82,-594.04 -2446.71,-103.4 -2932.36,1029.02 -109.88,256.56 -166.84,533.54 -166.84,812.77 0,279.24 56.26,556.53 166.66,812.74 215.87,500.94 617.66,900.43 1119.18,1114.86l2796.31 -1314.06z"/>
  <path class="fil4" d="M1377.47 4065.74l2679.51 -1259.17c-335.36,1108.82 -1622.28,1655.65 -2679.51,1259.17z"/>
  <path class="fil5" d="M4792.35 2629.67l1498.75 -179.53 749.37 -89.76 749.37 -89.76c74.87,-114.01 132.31,-237.91 171.02,-367.4 145.18,-485.71 27.71,-1071.65 -328.59,-1434.72 -124.28,-126.13 -274.1,-224.87 -439.13,-289.17 -175.18,-67.46 -361.53,-102.31 -549.38,-102.31 -5.78,0 -11.93,0.19 -17.47,0.11l-1833.94 0 0 2552.54zm2154.96 -1794.18c-89.82,-50.96 -191.52,-77.86 -294.83,-77.86 -9.84,0 -19.76,0.29 -29.53,0.73l-1060.39 0.01 0.96 1385.22 1060.36 0c74.08,-0.95 147.69,-14.98 216.91,-41.42 503.54,-184.53 535.39,-1001.43 106.52,-1266.68z"/>
 </g>
</svg>
